<mxfile host="Electron" agent="Mozilla/5.0 (Windows NT 10.0; Win64; x64) AppleWebKit/537.36 (KHTML, like Gecko) draw.io/27.0.2 Chrome/134.0.6998.205 Electron/35.3.0 Safari/537.36" version="27.0.2">
  <diagram name="Страница — 1" id="apLII6A_9B21kwBDk_J2">
    <mxGraphModel dx="1173" dy="687" grid="1" gridSize="10" guides="1" tooltips="1" connect="1" arrows="1" fold="1" page="1" pageScale="1" pageWidth="711" pageHeight="488" math="0" shadow="0">
      <root>
        <mxCell id="0" />
        <mxCell id="1" parent="0" />
        <mxCell id="kYq2JtmcBxSoWXHYH0eR-5" value="Продажи через Кол центр" style="rounded=0;whiteSpace=wrap;html=1;fontSize=10;fillColor=#eeeeee;strokeColor=#36393d;" parent="1" vertex="1">
          <mxGeometry x="200" y="40" width="80" height="40" as="geometry" />
        </mxCell>
        <mxCell id="kYq2JtmcBxSoWXHYH0eR-6" value="Кол центр" style="rounded=0;whiteSpace=wrap;html=1;fontSize=10;fillColor=#eeeeee;strokeColor=#36393d;" parent="1" vertex="1">
          <mxGeometry x="40" y="80" width="80" height="80" as="geometry" />
        </mxCell>
        <mxCell id="kYq2JtmcBxSoWXHYH0eR-7" value="Продажи в сети отделений" style="rounded=0;whiteSpace=wrap;html=1;fontSize=10;fillColor=#eeeeee;strokeColor=#36393d;" parent="1" vertex="1">
          <mxGeometry x="360" y="40" width="80" height="40" as="geometry" />
        </mxCell>
        <mxCell id="kYq2JtmcBxSoWXHYH0eR-8" value="Digital оповещение клиентов" style="rounded=0;whiteSpace=wrap;html=1;fontSize=10;fillColor=#eeeeee;strokeColor=#36393d;" parent="1" vertex="1">
          <mxGeometry x="280" y="40" width="80" height="40" as="geometry" />
        </mxCell>
        <mxCell id="kYq2JtmcBxSoWXHYH0eR-9" value="Обслуживание депозитных процессов" style="rounded=0;whiteSpace=wrap;html=1;fontSize=10;fillColor=#eeeeee;strokeColor=#36393d;" parent="1" vertex="1">
          <mxGeometry x="440" y="40" width="80" height="40" as="geometry" />
        </mxCell>
        <mxCell id="kYq2JtmcBxSoWXHYH0eR-10" value="Обслуживание кредитных процессов" style="rounded=0;whiteSpace=wrap;html=1;fontSize=10;fillColor=#eeeeee;strokeColor=#36393d;" parent="1" vertex="1">
          <mxGeometry x="520" y="40" width="80" height="40" as="geometry" />
        </mxCell>
        <mxCell id="kYq2JtmcBxSoWXHYH0eR-11" value="Управление договорами" style="rounded=0;whiteSpace=wrap;html=1;fontSize=10;fillColor=#eeeeee;strokeColor=#36393d;" parent="1" vertex="1">
          <mxGeometry x="600" y="40" width="80" height="40" as="geometry" />
        </mxCell>
        <mxCell id="kYq2JtmcBxSoWXHYH0eR-12" value="Управление обслуживанием депозитных продуктов" style="rounded=0;whiteSpace=wrap;html=1;fontSize=10;fillColor=#eeeeee;strokeColor=#36393d;" parent="1" vertex="1">
          <mxGeometry x="40" y="237" width="80" height="83" as="geometry" />
        </mxCell>
        <mxCell id="kYq2JtmcBxSoWXHYH0eR-13" value="Управление обслуживанием в сети отделений" style="rounded=0;whiteSpace=wrap;html=1;fontSize=10;fillColor=#eeeeee;strokeColor=#36393d;" parent="1" vertex="1">
          <mxGeometry x="40" y="160" width="80" height="76" as="geometry" />
        </mxCell>
        <mxCell id="kYq2JtmcBxSoWXHYH0eR-14" value="Управление обслуживанием кредитных продуктов" style="rounded=0;whiteSpace=wrap;html=1;fontSize=10;fillColor=#eeeeee;strokeColor=#36393d;" parent="1" vertex="1">
          <mxGeometry x="40" y="320" width="80" height="80" as="geometry" />
        </mxCell>
        <mxCell id="kYq2JtmcBxSoWXHYH0eR-16" value="АБС" style="rounded=1;whiteSpace=wrap;html=1;fontSize=10;" parent="1" vertex="1">
          <mxGeometry x="370" y="170" width="300" height="220" as="geometry" />
        </mxCell>
        <mxCell id="kYq2JtmcBxSoWXHYH0eR-17" value="Система кол-центра" style="rounded=1;whiteSpace=wrap;html=1;fontSize=10;" parent="1" vertex="1">
          <mxGeometry x="200" y="80" width="80" height="40" as="geometry" />
        </mxCell>
        <mxCell id="kYq2JtmcBxSoWXHYH0eR-18" value="Система партнёрского кол-центра" style="rounded=1;whiteSpace=wrap;html=1;fontSize=10;" parent="1" vertex="1">
          <mxGeometry x="200" y="120" width="80" height="40" as="geometry" />
        </mxCell>
        <mxCell id="kYq2JtmcBxSoWXHYH0eR-19" value="СМС-шлюз телеком-оператора" style="rounded=1;whiteSpace=wrap;html=1;fontSize=10;" parent="1" vertex="1">
          <mxGeometry x="280" y="262" width="80" height="40" as="geometry" />
        </mxCell>
        <mxCell id="Tb9vN1lOKp4pEBPt8wIw-13" value="Взимодействие с клиентом" style="rounded=0;whiteSpace=wrap;html=1;fontSize=10;fillColor=#eeeeee;strokeColor=#36393d;" vertex="1" parent="1">
          <mxGeometry x="120" y="40" width="80" height="40" as="geometry" />
        </mxCell>
        <mxCell id="Tb9vN1lOKp4pEBPt8wIw-14" value="Сайт" style="rounded=1;whiteSpace=wrap;html=1;fontSize=10;" vertex="1" parent="1">
          <mxGeometry x="120" y="178" width="80" height="40" as="geometry" />
        </mxCell>
        <mxCell id="Tb9vN1lOKp4pEBPt8wIw-15" value="Управление IT" style="rounded=0;whiteSpace=wrap;html=1;fontSize=10;fillColor=#eeeeee;strokeColor=#36393d;" vertex="1" parent="1">
          <mxGeometry x="40" y="400" width="80" height="80" as="geometry" />
        </mxCell>
      </root>
    </mxGraphModel>
  </diagram>
</mxfile>
